<?xml version="1.0" encoding="UTF-8" standalone="no"?>
<!-- Created with Inkscape (http://www.inkscape.org/) -->

<svg
   version="1.1"
   id="svg2"
   width="793.70081"
   height="1122.5197"
   viewBox="0 0 793.70081 1122.5197"
   sodipodi:docname="MXN-LOGO-updated.svg"
   inkscape:version="1.2.2 (b0a8486, 2022-12-01)"
   xmlns:inkscape="http://www.inkscape.org/namespaces/inkscape"
   xmlns:sodipodi="http://sodipodi.sourceforge.net/DTD/sodipodi-0.dtd"
   xmlns="http://www.w3.org/2000/svg"
   xmlns:svg="http://www.w3.org/2000/svg">
  <defs
     id="defs6">
    <linearGradient id="logoGold" x1="0%" y1="0%" x2="100%" y2="100%">
      <stop offset="0%" stop-color="#d97706" />
      <stop offset="50%" stop-color="#f59e0b" />
      <stop offset="100%" stop-color="#fbbf24" />
    </linearGradient>
  </defs>
  <sodipodi:namedview
     id="namedview4"
     pagecolor="#505050"
     bordercolor="#eeeeee"
     borderopacity="1"
     inkscape:showpageshadow="0"
     inkscape:pageopacity="0"
     inkscape:pagecheckerboard="0"
     inkscape:deskcolor="#505050"
     showgrid="false"
     inkscape:zoom="1.1893045"
     inkscape:cx="401.91557"
     inkscape:cy="361.97626"
     inkscape:window-width="1739"
     inkscape:window-height="1067"
     inkscape:window-x="53"
     inkscape:window-y="25"
     inkscape:window-maximized="0"
     inkscape:current-layer="g10">
    <inkscape:page
       x="0"
       y="0"
       id="page8"
       width="793.70081"
       height="1122.5197"
       inkscape:export-filename="AI Web App Builder/MXN-LOGO.png"
       inkscape:export-xdpi="96"
       inkscape:export-ydpi="96" />
  </sodipodi:namedview>
  <g
     id="g10"
     inkscape:groupmode="layer"
     inkscape:label="Page 1"
     transform="matrix(1.3333333,0,0,-1.3333333,0,1122.5197)">
    <path
       d="m 332.50499,741.99201 29.91942,-38.0029 -38.05179,-50.5497 -29.74707,38.232 z m -104.57225,-138.9177 29.61236,-38.4112 -113.97185,-151.4049 59.03712,-0.2897 72.77881,96.6821 76.33604,-97.3038 59.40531,0.2574 -221.30131,290.3085 27.88829,37.2107 283.82425,-373.4903 -173.81401,-0.7532 -50.90928,69.0511 -51.58989,-68.5341 -175.03554,0.5604 z"
       style="fill:url(#logoGold);fill-opacity:1;fill-rule:evenodd;stroke:#d97706;stroke-width:0.50211;stroke-linecap:butt;stroke-linejoin:miter;stroke-miterlimit:2.61313;stroke-dasharray:none;stroke-opacity:1"
       id="path12" />
    <path
       d="m 151.5875,624.4198 h 22.127 V 443.0323 H 150.2297 V 584.1704 L 99.985,514.0447 H 95.6316 L 44.788,584.1704 V 443.0323 H 21.3032 v 181.3875 h 22.5261 l 54.0388,-74.5143 z m 175.6962,0 h 28.2775 l -65.4616,-87.4137 70.0149,-93.9738 h -28.5573 l -55.6365,75.0906 -56.2357,-75.0906 h -28.2773 l 70.2545,93.7967 -65.2221,87.5908 h 28.5573 l 51.3227,-68.8847 z m 181.1681,0 h 22.2866 V 443.0323 H 510.5687 L 401.3328,582.7077 V 443.0323 h -22.0473 v 181.3875 h 19.0117 L 508.4518,483.5476 Z"
       style="fill:#1a1a1a;fill-opacity:1;fill-rule:nonzero;stroke:#1a1a1a;stroke-width:7.9999;stroke-linecap:butt;stroke-linejoin:miter;stroke-miterlimit:2.61313;stroke-dasharray:none;stroke-opacity:1"
       id="path14"
       inkscape:export-filename="path14.svg"
       inkscape:export-xdpi="96"
       inkscape:export-ydpi="96" />
  </g>
</svg>
